<?xml version="1.0" standalone="no"?>
<!DOCTYPE svg PUBLIC "-//W3C//DTD SVG 20010904//EN"
 "http://www.w3.org/TR/2001/REC-SVG-20010904/DTD/svg10.dtd">
<svg version="1.0" xmlns="http://www.w3.org/2000/svg"
 width="512.000000pt" height="512.000000pt" viewBox="0 0 512.000000 512.000000"
 preserveAspectRatio="xMidYMid meet">

<g transform="translate(0.000000,512.000000) scale(0.100000,-0.100000)"
fill="#000000" stroke="none">
<path d="M4010 4831 c-405 -86 -706 -435 -727 -843 -10 -184 23 -321 126 -533
133 -272 427 -648 719 -920 l73 -69 121 120 c445 440 724 869 784 1204 50 277
-49 583 -256 790 -220 219 -539 314 -840 251z m304 -626 c21 -9 60 -36 86 -61
197 -184 66 -510 -205 -508 -287 2 -402 374 -166 536 84 58 194 71 285 33z"/>
<path d="M2634 2800 c-230 -60 -415 -235 -491 -465 -23 -70 -27 -96 -27 -210
0 -114 4 -140 27 -210 78 -235 263 -409 500 -472 52 -14 146 -17 587 -22 l525
-6 66 -32 c81 -40 150 -111 190 -197 111 -236 -40 -513 -302 -556 -41 -6 -445
-10 -1126 -10 l-1063 0 0 -150 0 -151 1118 4 c1245 3 1168 -1 1318 73 181 89
319 258 371 454 24 89 23 263 -1 350 -64 234 -227 406 -467 492 -63 22 -73 23
-594 28 -513 5 -532 6 -588 27 -269 101 -353 435 -160 643 37 40 77 70 121 92
l67 33 447 3 448 3 0 149 0 150 -447 -1 c-404 0 -455 -2 -519 -19z"/>
<path d="M749 2636 c-350 -74 -611 -315 -715 -661 -24 -78 -27 -108 -28 -230
0 -116 3 -155 22 -225 87 -322 327 -682 723 -1085 l167 -169 68 63 c291 269
592 654 725 926 102 211 135 349 126 530 -20 389 -283 718 -664 831 -109 32
-318 42 -424 20z m296 -635 c56 -25 121 -91 148 -150 32 -68 30 -179 -2 -245
-93 -188 -329 -230 -478 -84 -165 161 -85 440 142 499 45 12 141 2 190 -20z"/>
</g>
</svg>
