<?xml version="1.0" standalone="no"?>
<!DOCTYPE svg PUBLIC "-//W3C//DTD SVG 20010904//EN"
 "http://www.w3.org/TR/2001/REC-SVG-20010904/DTD/svg10.dtd">
<svg version="1.0" xmlns="http://www.w3.org/2000/svg"
 width="512.000000pt" height="512.000000pt" viewBox="0 0 512.000000 512.000000"
 preserveAspectRatio="xMidYMid meet">
<metadata>
Created by potrace 1.14, written by Peter Selinger 2001-2017
</metadata>
<g transform="translate(0.000000,512.000000) scale(0.100000,-0.100000)"
fill="#000000" stroke="none">
<path d="M2429 5116 c-2 -2 -34 -6 -70 -10 -190 -18 -411 -82 -593 -173 -478
-239 -820 -663 -951 -1178 -63 -250 -67 -595 -10 -832 3 -13 7 -32 9 -42 31
-137 157 -423 245 -552 17 -26 31 -50 31 -53 0 -4 5 -12 10 -19 6 -7 58 -91
117 -187 147 -243 318 -523 363 -595 21 -33 120 -195 220 -360 198 -325 344
-564 507 -828 56 -93 103 -173 103 -178 0 -5 5 -9 10 -9 6 0 10 -6 10 -14 0
-27 67 -74 115 -81 53 -9 92 5 127 43 14 15 85 126 158 247 73 121 202 333
285 470 207 341 531 875 688 1135 72 118 145 238 162 265 231 361 316 560 376
870 20 107 20 414 -1 550 -82 534 -384 987 -845 1272 -127 78 -320 164 -434
193 -20 5 -54 14 -76 20 -95 26 -231 42 -386 45 -92 2 -169 2 -170 1z m286
-911 c418 -78 733 -445 739 -860 1 -129 -7 -193 -40 -295 -76 -243 -249 -440
-479 -546 -198 -91 -451 -106 -654 -38 -279 93 -481 296 -576 578 -31 92 -39
153 -39 276 0 122 7 177 39 273 103 316 365 547 691 611 66 12 254 13 319 1z"/>
</g>
</svg>
